<svg xmlns="http://www.w3.org/2000/svg" height="24" width="24" viewBox="0 0 64 64"><defs><style>.cls-1{fill:#0071bc;}.cls-2{fill:#1b1464;}</style></defs><g id="Layer_17" data-name="Layer 17"><polygon class="cls-1" points="39.07 36.57 34.83 42.3 39.07 42.3 39.07 36.57"/><path class="cls-1" d="M24.6,45.21a1.91,1.91,0,0,0,2.82,0,3.83,3.83,0,0,0,.71-1.81,18,18,0,0,0,.21-3.07,17.1,17.1,0,0,0-.21-3,3.7,3.7,0,0,0-.73-1.73,1.94,1.94,0,0,0-3.23.72,12,12,0,0,0-.51,4,16.72,16.72,0,0,0,.22,3A3.76,3.76,0,0,0,24.6,45.21Z"/><path class="cls-1" d="M3,51.56A5.65,5.65,0,0,0,8.64,57.2H55.36A5.65,5.65,0,0,0,61,51.56V25.8H3Zm29.32-9a1.66,1.66,0,0,1,.2-.4c.09-.14.19-.28.29-.41l.36-.49,5.23-7a8.07,8.07,0,0,1,.84-1A1.16,1.16,0,0,1,40,33c1,0,1.49.57,1.49,1.72V42.3H42a3,3,0,0,1,1.22.21.89.89,0,0,1,.46.9,1,1,0,0,1-.38.84,2,2,0,0,1-1.12.26h-.61v1.83a1.64,1.64,0,0,1-.33,1.13,1.13,1.13,0,0,1-.9.37,1.15,1.15,0,0,1-.89-.38,1.6,1.6,0,0,1-.34-1.12V44.51h-5a2,2,0,0,1-1.41-.43,1.46,1.46,0,0,1-.46-1.15A1.06,1.06,0,0,1,32.32,42.55ZM21.1,38a8.79,8.79,0,0,1,.5-2.05A4.43,4.43,0,0,1,25.94,33a4.94,4.94,0,0,1,1.84.33,4.07,4.07,0,0,1,1.45,1,5.48,5.48,0,0,1,1.06,1.57A11.33,11.33,0,0,1,31,40.51a17.25,17.25,0,0,1-.19,2.78,6.85,6.85,0,0,1-.73,2.11,4.91,4.91,0,0,1-1.74,1.79,4.56,4.56,0,0,1-2.36.63A4.49,4.49,0,0,1,23.33,47a5.12,5.12,0,0,1-1.79-2.34,8.72,8.72,0,0,1-.45-1.81A14.47,14.47,0,0,1,21,40.67,21.71,21.71,0,0,1,21.1,38Z"/><path class="cls-1" d="M55.36,10.4H51v4.4a1,1,0,0,1-2,0V10.4H45v4.4a1,1,0,0,1-2,0V10.4H39v4.4a1,1,0,0,1-2,0V10.4H33v4.4a1,1,0,0,1-2,0V10.4H27v4.4a1,1,0,0,1-2,0V10.4H21v4.4a1,1,0,0,1-2,0V10.4H15v4.4a1,1,0,0,1-2,0V10.4H8.64A5.65,5.65,0,0,0,3,16V23.8H61V16A5.65,5.65,0,0,0,55.36,10.4ZM50,19.8a4,4,0,0,1-3-1.38,4,4,0,0,1-6,0,4,4,0,0,1-6,0,4,4,0,0,1-6,0,4,4,0,0,1-6,0,4,4,0,0,1-6,0,4,4,0,0,1-7-2.62,1,1,0,0,1,2,0,2,2,0,0,0,4,0,1,1,0,1,1,2,0,2,2,0,0,0,4,0,1,1,0,1,1,2,0,2,2,0,0,0,4,0,1,1,0,1,1,2,0,2,2,0,0,0,4,0,1,1,0,1,1,2,0,2,2,0,0,0,4,0,1,1,0,1,1,2,0,2,2,0,0,0,4,0,1,1,0,1,1,2,0,2,2,0,0,0,4,0,1,1,0,1,1,2,0A4,4,0,0,1,50,19.8Z"/><path class="cls-1" d="M15,7a1,1,0,0,0-2,0v3.4h2Z"/><path class="cls-1" d="M21,7a1,1,0,0,0-2,0v3.4h2Z"/><path class="cls-1" d="M27,7a1,1,0,0,0-2,0v3.4h2Z"/><path class="cls-1" d="M33,7a1,1,0,0,0-2,0v3.4h2Z"/><path class="cls-1" d="M39,7a1,1,0,0,0-2,0v3.4h2Z"/><path class="cls-1" d="M45,7a1,1,0,0,0-2,0v3.4h2Z"/><path class="cls-1" d="M51,7a1,1,0,0,0-2,0v3.4h2Z"/><path class="cls-2" d="M55.36,10.4H8.64A5.65,5.65,0,0,0,3,16V51.56A5.65,5.65,0,0,0,8.64,57.2H55.36A5.65,5.65,0,0,0,61,51.56V16A5.65,5.65,0,0,0,55.36,10.4ZM59,51.56a3.64,3.64,0,0,1-3.64,3.64H8.64A3.64,3.64,0,0,1,5,51.56V25.8H59ZM59,23.8H5V16A3.64,3.64,0,0,1,8.64,12.4H55.36A3.64,3.64,0,0,1,59,16Z"/><path class="cls-2" d="M53,14.8a1,1,0,0,0-1,1,2,2,0,0,1-4,0,1,1,0,1,0-2,0,2,2,0,0,1-4,0,1,1,0,1,0-2,0,2,2,0,0,1-4,0,1,1,0,1,0-2,0,2,2,0,0,1-4,0,1,1,0,1,0-2,0,2,2,0,0,1-4,0,1,1,0,1,0-2,0,2,2,0,0,1-4,0,1,1,0,1,0-2,0,2,2,0,0,1-4,0,1,1,0,0,0-2,0,4,4,0,0,0,7,2.62,4,4,0,0,0,6,0,4,4,0,0,0,6,0,4,4,0,0,0,6,0,4,4,0,0,0,6,0,4,4,0,0,0,6,0,4,4,0,0,0,7-2.62A1,1,0,0,0,53,14.8Z"/></g></svg>