<?xml version="1.0" ?><svg style="enable-background:new 0 0 48 48;" version="1.1" viewBox="0 0 48 48" xml:space="preserve" xmlns="http://www.w3.org/2000/svg" height="24" width="24" fill="rgba(0,0,0,0.6)" xmlns:xlink="http://www.w3.org/1999/xlink"><g id="Icons"><g><path d="M15.30904,35.419h17.38193c0.50902,0,0.92166-0.41264,0.92166-0.92166V22.15381    c0-0.50902-0.41264-0.92166-0.92166-0.92166H15.30904c-0.50902,0-0.92166,0.41264-0.92166,0.92166v12.34353    C14.38737,35.00636,14.80002,35.419,15.30904,35.419z" style="fill:#707070;"/><rect height="2.64444" style="fill:#707070;" width="12.62949" x="17.68526" y="24.55268"/><rect height="2.41647" style="fill:#707070;" width="7.88955" x="20.05522" y="29.68199"/><polyline points="23.7458,15.59549 20.5556,21.11474 18.45543,21.11474 22.5258,14.05549   " style="fill:#CAEDFF;"/><polyline points="24.2658,15.60549 27.41015,21.05247 29.54618,21.11474 25.4758,14.05549   " style="fill:#CAEDFF;"/><circle cx="24" cy="14.05317" r="1.47217" style="fill:#65C3E8;"/><path d="    M15.30904,35.419h17.38193c0.50902,0,0.92166-0.41264,0.92166-0.92166V22.15381c0-0.50902-0.41264-0.92166-0.92166-0.92166    H15.30904c-0.50902,0-0.92166,0.41264-0.92166,0.92166v12.34353C14.38737,35.00636,14.80002,35.419,15.30904,35.419z" style="fill:none;stroke:#303030;stroke-width:0.7;stroke-linecap:round;stroke-linejoin:round;stroke-miterlimit:10;"/><rect height="2.64444" style="fill:none;stroke:#303030;stroke-width:0.7;stroke-linecap:round;stroke-linejoin:round;stroke-miterlimit:10;" width="12.62949" x="17.68526" y="24.55268"/><rect height="2.41647" style="fill:none;stroke:#303030;stroke-width:0.7;stroke-linecap:round;stroke-linejoin:round;stroke-miterlimit:10;" width="7.88955" x="20.05522" y="29.68199"/><circle cx="24" cy="14.05317" r="1.47217" style="fill:none;stroke:#303030;stroke-width:0.7;stroke-linecap:round;stroke-linejoin:round;stroke-miterlimit:10;"/><line style="fill:none;stroke:#303030;stroke-width:0.7;stroke-linecap:round;stroke-linejoin:round;stroke-miterlimit:10;" x1="23.7458" x2="20.5556" y1="15.59549" y2="21.11474"/><line style="fill:none;stroke:#303030;stroke-width:0.7;stroke-linecap:round;stroke-linejoin:round;stroke-miterlimit:10;" x1="22.5258" x2="18.45543" y1="14.05549" y2="21.11474"/><line style="fill:none;stroke:#303030;stroke-width:0.7;stroke-linecap:round;stroke-linejoin:round;stroke-miterlimit:10;" x1="27.41015" x2="24.2658" y1="21.05247" y2="15.60549"/><line style="fill:none;stroke:#303030;stroke-width:0.7;stroke-linecap:round;stroke-linejoin:round;stroke-miterlimit:10;" x1="29.54618" x2="25.4758" y1="21.11474" y2="14.05549"/></g></g></svg>