<?xml version="1.0" encoding="UTF-8" standalone="no"?>
<!-- Created with Inkscape (http://www.inkscape.org/) -->

<svg
   xmlns:dc="http://purl.org/dc/elements/1.1/"
   xmlns:cc="http://creativecommons.org/ns#"
   xmlns:rdf="http://www.w3.org/1999/02/22-rdf-syntax-ns#"
   xmlns:svg="http://www.w3.org/2000/svg"
   xmlns="http://www.w3.org/2000/svg"
   xmlns:sodipodi="http://sodipodi.sourceforge.net/DTD/sodipodi-0.dtd"
   xmlns:inkscape="http://www.inkscape.org/namespaces/inkscape"
   width="210mm"
   height="297mm"
   id="svg3083"
   version="1.1"
   inkscape:version="0.48.1 "
   sodipodi:docname="tierra.svg">
  <defs
     id="defs3085" />
  <sodipodi:namedview
     id="base"
     pagecolor="#ffffff"
     bordercolor="#666666"
     borderopacity="1.0"
     inkscape:pageopacity="0.0"
     inkscape:pageshadow="2"
     inkscape:zoom="0.49497475"
     inkscape:cx="388.88438"
     inkscape:cy="720.9825"
     inkscape:document-units="px"
     inkscape:current-layer="layer1"
     showgrid="false"
     inkscape:window-width="1366"
     inkscape:window-height="706"
     inkscape:window-x="-8"
     inkscape:window-y="-8"
     inkscape:window-maximized="1"
     showguides="true"
     inkscape:guide-bbox="true" />
  <metadata
     id="metadata3088">
    <rdf:RDF>
      <cc:Work
         rdf:about="">
        <dc:format>image/svg+xml</dc:format>
        <dc:type
           rdf:resource="http://purl.org/dc/dcmitype/StillImage" />
        <dc:title />
      </cc:Work>
    </rdf:RDF>
  </metadata>
  <g
     inkscape:label="Capa 1"
     inkscape:groupmode="layer"
     id="layer1">
    <g
       id="g3900"
       transform="matrix(0.93672937,0,0,0.92612317,23.299698,22.443096)">
      <path
         transform="translate(317.14285,262.85714)"
         d="m 434.28572,232.36218 c 0,211.44617 -171.41099,382.85715 -382.85715,382.85715 -211.44616,0 -382.85715,-171.41098 -382.85715,-382.85715 0,-211.446161 171.41099,-382.85714 382.85715,-382.85714 211.44616,0 382.85715,171.410979 382.85715,382.85714 z"
         sodipodi:ry="382.85715"
         sodipodi:rx="382.85715"
         sodipodi:cy="232.36218"
         sodipodi:cx="51.42857"
         id="path3091"
         style="fill:#0000ff;fill-opacity:1;fill-rule:evenodd;stroke:none"
         sodipodi:type="arc" />
      <path
         sodipodi:nodetypes="csscsccsccccccsccc"
         inkscape:connector-curvature="0"
         id="path3093"
         d="m 57.142857,273.07646 c -0.932286,15.70342 10.836172,64.0283 34.937866,47.94881 21.116577,-14.08797 66.783427,-10.4491 53.368637,6.05021 -42.48916,52.2589 23.61029,24.26256 37.40778,37.42956 0.13738,13.94403 30.23292,14.75609 35.96959,-8.79785 16.08745,-66.05279 39.06009,-29.93866 54.03041,-38.34501 10.83073,-5.9172 34.21533,-27.17803 13.21669,5.80733 -10.33315,26.42608 11.62031,52.09189 21.03009,35.37831 17.09016,-30.35542 47.29844,-14.60296 65.03894,4.52864 -4.92234,-15.37179 -8.64721,-29.86473 -2.14286,-35.71428 0.41074,-35.84518 22.07759,-29.17816 38.57143,-32.85714 26.35598,-0.63153 11.6388,-21.79965 14.28571,-34.28572 4.85083,-4.56499 -8.84141,-40.03509 21.41683,-2.2544 20.51938,36.96872 24.99691,5.54312 32.86889,-3.45988 9.96801,-10.11638 7.30232,-47.68587 5.71428,-51.42858 -4.57085,-10.77265 21.23995,-32.48241 22.85714,-24.28571 39.64593,9.418 23.97964,-15.40489 27.14286,-28.57143 C 364.41628,70.737498 165.45381,119.72586 57.142857,273.07646 z"
         style="fill:#008000;stroke:none" />
      <path
         sodipodi:nodetypes="cccccccscscssscsssc"
         inkscape:connector-curvature="0"
         id="path3095"
         d="m 371.42857,361.6479 c -1.01752,8.49676 -41.02797,144.74337 37.85715,164.28571 13.21589,4.97882 23.16389,12.68088 24.99999,27.14286 l 11.42857,91.42857 c -3.47734,28.82653 23.26573,44.24305 3.57143,50.71429 -25.6722,40.90613 36.93468,47.89549 40,8.57143 44.69523,-65.61881 39.1387,-53.96483 53.57143,-115.00001 7.1646,-44.60803 31.94909,-54.34611 55.55311,-63.66568 47.29387,-18.67301 79.46256,-24.97404 57.30403,-36.33432 -24.4527,1.99567 -46.20195,-0.57541 -33.05046,-22.87613 7.98372,-13.53785 -25.82038,-16.44393 -39.80667,-14.98101 -25.81999,-0.54214 -58.98533,-0.17365 -40.3075,-20.8335 5.44105,-6.01844 -4.51591,-18.41463 -7.16295,-32.90545 -1.59396,-8.7259 -19.87273,5.63287 -34.34952,12.16866 -6.49095,2.93045 -14.49339,9.55094 -15.32289,-10.57257 7.31376,-17.98067 -12.86112,-19.05979 -17.42228,-10.26753 -13.08305,25.21936 -15.87192,29.63189 -15.6558,-10.11182 0.0935,-17.20054 -26.62917,-17.81419 -35.03672,-20.87497 -40.87689,-14.88128 -36.65491,2.65126 -46.17092,4.11147 z"
         style="fill:#008000;stroke:none" />
      <path
         sodipodi:nodetypes="ccccccc"
         inkscape:connector-curvature="0"
         id="path3097"
         d="m -13.571429,457.36219 c 41.428571,33.80952 158.505689,56.15714 124.285709,101.42857 -38.35118,27.14286 -29.473229,54.28571 -21.428566,81.42857 15.688636,20.99261 29.709516,13.63316 47.142856,64.28571 -0.53331,18.5306 14.64458,29.57968 -22.85715,65.71429 L 105,771.6479 C 9.7430953,686.94991 -22.191523,557.54161 -13.571429,457.36219 z"
         style="fill:#008000;stroke:none" />
      <path
         style="fill:#006100;fill-opacity:1;stroke:none"
         d="m 383.88087,390.41354 c -0.88046,6.62982 -35.50125,112.93953 32.75753,128.18792 11.43563,3.88484 20.0436,9.89456 21.63234,21.17887 l 9.88909,71.33938 c -3.00892,22.49258 20.13167,34.52169 3.09031,39.57104 -22.21398,31.918 31.95937,37.37162 34.61176,6.68807 38.67451,-51.20068 33.86647,-42.10737 46.35501,-89.73155 6.19949,-34.80649 27.64536,-42.40487 48.06976,-49.67668 40.9231,-14.57008 68.75847,-19.48661 49.58482,-28.35074 -21.15877,1.55715 -39.97827,-0.44898 -28.59835,-17.84965 6.90826,-10.56325 -22.34222,-12.83079 -34.44447,-11.68931 -22.34188,-0.42302 -51.03963,-0.13552 -34.87783,-16.25585 4.70811,-4.69602 -3.90759,-14.36846 -6.19804,-25.67529 -1.37925,-6.80857 -17.19575,4.39521 -29.72243,9.49493 -5.61657,2.28654 -12.54105,7.45234 -13.25882,-8.24953 6.32858,-14.02984 -11.12863,-14.87187 -15.07539,-8.01149 -11.32064,19.67802 -13.73387,23.121 -13.54684,-7.88998 0.0809,-13.42114 -23.04204,-13.89997 -30.31705,-16.28821 -35.37052,-11.61148 -31.71726,2.06872 -39.9514,3.20807 z"
         id="path3099"
         inkscape:connector-curvature="0"
         sodipodi:nodetypes="cccccccscscssscsssc" />
      <path
         style="fill:#004600;fill-opacity:1;stroke:none"
         d="m 3.1898952,488.79076 c 29.7028218,26.27922 113.6429848,43.64941 89.1084648,78.83766 -27.496442,21.09741 -21.131265,42.1948 -15.363526,63.29221 11.248199,16.31698 21.300674,10.59668 33.799766,49.96753 -0.38237,14.40333 10.49965,22.99147 -16.387772,51.07792 l -6.145405,1.11039 C 19.905586,667.24303 -2.9904078,566.65749 3.1898952,488.79076 z"
         id="path3869"
         inkscape:connector-curvature="0"
         sodipodi:nodetypes="ccccccc" />
      <path
         style="fill:#004600;fill-opacity:1;stroke:none"
         d="m 82.166786,258.59898 c 0.01233,11.44244 13.115287,45.68537 33.763094,32.43582 18.09046,-11.60851 59.04709,-11.99589 47.96071,0.85008 -35.11432,40.68757 22.37865,16.02001 35.40198,24.64866 0.87254,10.09653 27.77858,8.69179 31.63231,-8.75834 10.80712,-48.93577 33.25396,-24.28438 46.16398,-31.3682 9.34898,-5.00567 29.07809,-21.96278 12.10912,3.33339 -7.80195,19.83607 13.17331,36.98278 20.67341,24.24676 13.62177,-23.1313 41.43196,-13.7158 58.29548,-1.02557 -5.22019,-10.81434 -9.32429,-21.07107 -3.83326,-25.74119 -1.56103,-26.00519 18.13672,-22.60845 32.66082,-26.36711 23.49064,-2.20328 9.21615,-16.56965 10.90726,-25.79396 4.08421,-3.62965 -10.04456,-28.42894 18.99481,-3.0523 20.3031,25.43321 22.60964,2.36168 29.15178,-4.68442 8.35316,-7.99179 3.95346,-35.04289 2.33476,-37.65015 -4.65914,-7.5045 17.21138,-24.94765 19.09563,-19.11438 35.89332,4.19968 20.57513,-12.75254 22.69047,-22.5042 C 345.54929,91.607286 170.5954,140.28803 82.166786,258.59898 z"
         id="path3871"
         inkscape:connector-curvature="0"
         sodipodi:nodetypes="csscsccsccccccsccc" />
      <path
         sodipodi:nodetypes="ccsc"
         inkscape:connector-curvature="0"
         id="path3893"
         d="m 383.85241,112.82661 c 116.48035,260.44894 115.17981,515.4197 0,765.09375 204.3532,-8.03143 367.5625,-176.24059 367.5625,-382.5625 0,-206.32191 -163.2093,-374.49982 -367.5625,-382.53125 z"
         style="opacity:0.76211452;fill:#000000;fill-opacity:0.52910055;fill-rule:evenodd;stroke:none" />
      <path
         sodipodi:nodetypes="ccccccscccccc"
         inkscape:connector-curvature="0"
         id="path3898"
         d="m 26.263966,438.18943 c 43.074104,19.9722 148.859194,5.73842 113.137084,68.69037 -7.95496,31.55464 -32.26976,58.20133 -16.16244,96.97465 26.35765,45.91004 212.77946,96.32893 66.67007,137.38074 -49.23276,10.10153 -59.1661,20.20305 -38.3858,30.30458 83.76546,23.79591 244.07357,99.2581 232.33509,58.58885 -5.80638,-62.24167 51.11582,-93.10427 17.29596,-115.97605 -68.55956,-46.36561 18.66726,-120.9728 2.90709,-140.6027 -37.71301,-40.40583 -143.9762,-52.24909 -113.13709,-121.2183 10.31226,-31.86219 1.96595,-45.06579 0,-64.64977 -32.68347,13.21507 -36.35912,65.10722 -98.99495,38.3858 C 158.39191,405.07888 155.3165,358.70544 90.913729,363.43814 -8.4795285,389.94388 -5.3332926,414.35697 26.263966,438.18943 z"
         style="opacity:0.36563876;fill:#0000c0;fill-opacity:1;stroke:none" />
    </g>
  </g>
</svg>
