<?xml version="1.0" encoding="utf-8"?>
<!-- Generator: Adobe Illustrator 22.0.1, SVG Export Plug-In . SVG Version: 6.00 Build 0)  -->
<svg version="1.1" id="Layer_1" xmlns="http://www.w3.org/2000/svg" xmlns:xlink="http://www.w3.org/1999/xlink" x="0px" y="0px" height="24" width="24"
	 viewBox="0 0 64 64" enable-background="new 0 0 64 64" xml:space="preserve">
<g>
	<g>
		<path fill="#2F79BB" d="M38.0146294,23.6788578H14.2315149c-0.8011303,0-1.4506016-0.6494312-1.4506016-1.4505615
			c0-0.8011703,0.6494713-1.4506016,1.4506016-1.4506016h23.7831154c0.8011284,0,1.4505615,0.6494312,1.4505615,1.4506016
			C39.4651909,23.0294266,38.8157578,23.6788578,38.0146294,23.6788578z"/>
	</g>
	<path fill="#2F79BB" d="M32.0653381,35.3470993h-17.833828c-0.801115,0-1.4506054,0.6494522-1.4506054,1.4505692
		c0,0.8011894,0.6494904,1.4506073,1.4506054,1.4506073h16.6040115L32.0653381,35.3470993z"/>
	<path fill="#2F79BB" d="M35.0975151,28.1942616H14.2315092c-0.801115,0-1.4506054,0.6494179-1.4506054,1.4506054
		c0,0.801115,0.6494904,1.4505692,1.4506054,1.4505692h19.6361847L35.0975151,28.1942616z"/>
	<g>
		
			<rect x="36.4750786" y="20.7182274" transform="matrix(0.7071068 -0.7071068 0.7071068 0.7071068 -2.6814406 40.4743538)" fill="#2F79BB" width="22.0821362" height="5.5114694"/>
		<polygon fill="#2F79BB" points="40.4722099,34.0227013 34.05336,36.7438889 36.7745323,30.3250237 		"/>
		<g>
			<path fill="#2F79BB" d="M59.211319,13.9993896l-2.2232742-2.2232742c-0.4621048-0.4621067-1.2113266-0.4621067-1.6734352,0
				l-0.9523888,0.9523916l3.8967056,3.8967066l0.9523926-0.9523907
				C59.6734238,15.2107172,59.6734238,14.4614954,59.211319,13.9993896z"/>
		</g>
	</g>
	<path fill="#3F4857" d="M44.3449783,41.1361237c0,0.9467964-0.7675133,1.7143097-1.7143097,1.7143097H25.4305229
		c-0.1934547,0-0.3849525,0.0386391-0.5632935,0.113636L7.9011383,50.1000175V18.680975
		c0-1.3837643,1.1217642-2.5054932,2.5054922-2.5054932h31.4328537c1.383728,0,2.5054932,1.1217289,2.5054932,2.5054932v0.7074127
		l0.0007973-0.0003624l2.9003754-2.900341v-3.2527065c0-1.6399641-1.329464-2.969429-2.969429-2.969429H7.9694295
		C6.3294649,10.2655487,5,11.5950136,5,13.2349777v39.0489044c0,0.4857216,0.2432237,0.9395828,0.6480041,1.2081795
		c0.2413387,0.1604347,0.5211363,0.2423897,0.8026738,0.2423897c0.1903377,0,0.3815818-0.0373726,0.5622416-0.1136017
		l18.7094345-7.8692398h16.9083138c2.5490608,0,4.6154823-2.0664215,4.6154823-4.6154861v-10.13517l-2.9011726,2.9012108V41.1361237
		z"/>
</g>
</svg>
